<?xml version="1.0" encoding="utf-8"?>
<!-- Generator: Adobe Illustrator 24.1.2, SVG Export Plug-In . SVG Version: 6.00 Build 0)  -->
<!DOCTYPE svg PUBLIC "-//W3C//DTD SVG 1.1//EN" "http://www.w3.org/Graphics/SVG/1.1/DTD/svg11.dtd" [
	<!ENTITY ns_extend "http://ns.adobe.com/Extensibility/1.0/">
	<!ENTITY ns_ai "http://ns.adobe.com/AdobeIllustrator/10.0/">
	<!ENTITY ns_graphs "http://ns.adobe.com/Graphs/1.0/">
	<!ENTITY ns_vars "http://ns.adobe.com/Variables/1.0/">
	<!ENTITY ns_imrep "http://ns.adobe.com/ImageReplacement/1.0/">
	<!ENTITY ns_sfw "http://ns.adobe.com/SaveForWeb/1.0/">
	<!ENTITY ns_custom "http://ns.adobe.com/GenericCustomNamespace/1.0/">
	<!ENTITY ns_adobe_xpath "http://ns.adobe.com/XPath/1.0/">
]>
<svg version="1.1" id="Слой_1" xmlns:x="&ns_extend;" xmlns:i="&ns_ai;" xmlns:graph="&ns_graphs;"
	 xmlns="http://www.w3.org/2000/svg" xmlns:xlink="http://www.w3.org/1999/xlink" x="0px" y="0px" viewBox="0 0 500 400"
	 style="enable-background:new 0 0 500 400;" xml:space="preserve">
<style type="text/css">
	.st0{fill:#FFFFFF;}
	.st1{display:none;}
	.st2{display:inline;}
</style>
<metadata>
	<sfw  xmlns="&ns_sfw;">
		<slices></slices>
		<sliceSourceBounds  bottomLeftOrigin="true" height="377.2" width="494.6" x="2.8" y="10.9"></sliceSourceBounds>
	</sfw>
</metadata>
<path class="st0" d="M461.2,28.3c-178-45.8-208,17.5-211.6,27.7C246,45.8,216-17.5,38,28.3L2.8,92.9V389l207.1-12.2
	c0,0,10.2,11.7,40.2,12.1l0,0c0,0-0.4,0-0.3,0c0.3,0-0.1,0,0.3,0v0.1c27.9-0.4,40.2-12.1,40.2-12.1l207.1,12.2V92.9L461.2,28.3z
	 M442.9,38.6v274.9c0,0-138.5-35.6-183,20c0,0,0-231.1,0-239.9C259.9,81.9,250-7.5,442.9,38.6z M17.6,97.9l24.7-43.1V316l-24.7,45
	C17.6,361,17.6,97.9,17.6,97.9z M216.4,361L31.2,374.1l21.6-45.6c0,0,183.7-48.1,189.3,45.6C242,374.1,228.9,377.2,216.4,361z
	 M240.1,93.6c0,8.8,0,239.9,0,239.9c-44.5-55.6-183-20-183-20V38.6C250-7.5,240.1,81.9,240.1,93.6z M281.1,361
	c-12.5,16.2-25.6,13.1-25.6,13.1c5.6-93.7,189.3-45.6,189.3-45.6l21.6,45.6L281.1,361z M482.4,361l-24.7-45V54.8l24.7,43.1V361z"/>
<g class="st1">
	<path class="st2" d="M326.3,155.1l-34.5,16.4l34.5,16.4v13.2l-46.1-22.7v-13.7l46.1-22.7V155.1z"/>
	<path class="st2" d="M362.7,109h11.2l-33,119.6h-11.2L362.7,109z"/>
	<path class="st2" d="M422.5,164.6v13.7L376.4,201v-13.2l34.5-16.4L376.4,155v-13.2L422.5,164.6z"/>
</g>
<g>
	<path class="st0" d="M100.5,173.1l-8.1,8.5v15.3h-14v-60.5h13.9v28.3l26.8-28.3h15.6l-25.1,27l26.6,33.6h-16.3L100.5,173.1z"/>
	<path class="st0" d="M182.6,139.1c3.9,1.8,7,4.3,9.1,7.6s3.2,7.2,3.2,11.7c0,4.4-1.1,8.3-3.2,11.6c-2.1,3.3-5.2,5.9-9.1,7.6
		c-3.9,1.8-8.6,2.6-14,2.6h-12.2v16.7h-14v-60.5h26.2C174,136.4,178.7,137.3,182.6,139.1z M177.5,166.1c2.2-1.8,3.3-4.4,3.3-7.7
		c0-3.4-1.1-6-3.3-7.8s-5.4-2.7-9.6-2.7h-11.4v21h11.4C172.1,168.8,175.3,167.9,177.5,166.1z"/>
	<path class="st0" d="M204.9,136.4h14v60.5h-14V136.4z"/>
</g>
<g>
	<path class="st0" d="M423.4,157.4c1.8,0,3.3-1.4,3.3-3.3s-1.4-3.3-3.3-3.3l-12.5-0.1l0.1-9l12.5,0.1c1.8,0,3.3-1.4,3.3-3.3
		c0-1.8-1.4-3.3-3.3-3.3l-12.5-0.1l0.1-5.4c0-0.9-0.3-1.7-0.9-2.3l-9.5-9.7c-0.6-0.6-1.5-1-2.3-1l-5.4-0.1l0.1-12.5
		c0-1.8-1.4-3.3-3.3-3.3c-1.8,0-3.3,1.4-3.3,3.3l-0.1,12.5l-9-0.1l0.1-12.5c0-1.8-1.4-3.3-3.3-3.3s-3.3,1.4-3.3,3.3l-0.1,12.5
		l-9-0.1l0.1-11.9c0.1-11-8.8-20.1-19.8-20.2c-9-0.1-16.9,5.9-19.4,14.4c-6.9,0.6-13.3,3.6-18.2,8.5c-5.6,5.6-8.7,13-8.8,20.9
		c0,3.9,0.7,7.8,2.1,11.4c-4.7,2.4-8.7,5.9-11.7,10.3c-3.8,5.5-5.9,11.9-6,18.6c-0.1,12.3,6.5,23.4,17.2,29.2
		c-1.5,3.6-2.3,7.5-2.4,11.4c-0.1,7.9,2.9,15.4,8.4,21c4.9,5,11.2,8.1,18.1,8.9c2.3,8.5,10.1,14.7,19.1,14.8
		c11,0.1,20.1-8.8,20.2-19.8l0.1-11.9l9,0.1l-0.1,12.5c0,1.8,1.4,3.3,3.3,3.3c1.8,0,3.3-1.4,3.3-3.3l0.1-12.5l9,0.1l-0.1,12.5
		c0,1.8,1.4,3.3,3.3,3.3c1.8,0,3.3-1.4,3.3-3.3l0.1-12.5l5.4,0.1c0.9,0,1.7-0.3,2.3-0.9l9.7-9.5c0.6-0.6,1-1.5,1-2.3l0.1-5.4
		l12.5,0.1c1.8,0,3.3-1.4,3.3-3.3s-1.4-3.3-3.3-3.3l-12.5-0.1l0.1-9l12.5,0.1c1.8,0,3.3-1.4,3.3-3.3c0-1.8-1.4-3.3-3.3-3.3
		l-12.5-0.1l0.1-9l12.5,0.1c1.8,0,3.3-1.4,3.3-3.3s-1.4-3.3-3.3-3.3l-12.5-0.1l0.1-9L423.4,157.4z M340.5,247
		c-5.5-0.1-10.3-3.5-12.3-8.4c2.4-0.4,4.8-1.1,7-2.1c3.3-1.5,6.3-3.5,8.8-6.1c1.3-1.3,1.3-3.4,0-4.7c-1.3-1.3-3.4-1.3-4.7,0
		c-2,2-4.3,3.5-6.8,4.7c-2.7,1.2-5.6,1.9-8.5,2c-12.6-0.3-22.7-10.8-22.6-23.4c0-4,1.1-7.9,3.1-11.3c0.5-0.8,0.6-1.8,0.3-2.7
		c-0.3-0.9-1-1.6-1.9-2c-10-4.1-16.4-13.7-16.3-24.5c0.1-10.8,6.7-20.3,16.7-24.2c2-1,2.5-2.6,1.7-4.7c-1.9-3.5-2.9-7.4-2.9-11.4
		c0.1-12.6,10.5-22.9,23-23c2.9,0.1,5.8,0.9,8.5,2.1c2.5,1.2,4.8,2.8,6.7,4.8c0.6,0.7,1.5,1,2.4,1c0.8,0,1.7-0.3,2.3-0.9
		c1.3-1.3,1.4-3.4,0.1-4.7c-2.5-2.6-5.4-4.7-8.7-6.2c-2.3-1.1-4.6-1.8-7-2.3c2.1-4.8,6.9-8.2,12.4-8.1c7.4,0.1,13.3,6.1,13.2,13.5
		l-0.4,40.6l-10.3-0.1l-8.7-8.9c1-1.7,1.5-3.6,1.5-5.6c0-3.1-1.2-6.1-3.4-8.3c-4.5-4.6-12-4.7-16.6-0.2c-2.2,2.2-3.5,5.1-3.5,8.3
		s1.2,6.1,3.4,8.3c2.3,2.3,5.3,3.5,8.3,3.5c1.9,0,3.9-0.4,5.6-1.4l9.7,9.8c0.7,0.6,1.5,1,2.3,1l11.7,0.1l-0.1,14.2l-20.7-0.2
		c-1.4-4.9-5.9-8.5-11.2-8.5c-6.5-0.1-11.8,5.1-11.8,11.6c-0.1,6.5,5.1,11.8,11.6,11.8c5.3,0.1,9.9-3.5,11.3-8.3l20.7,0.2l-0.1,14.2
		l-11.7-0.1c-0.1,0-0.2,0-0.2,0c-0.8,0-1.5,0.4-2.1,0.9l-9.8,9.7c-4.4-2.5-10.1-1.9-13.9,1.9c-2.2,2.2-3.5,5.1-3.5,8.3
		c0,3.1,1.2,6.1,3.4,8.3c2.3,2.3,5.3,3.5,8.3,3.5c3,0,6-1.1,8.3-3.3c2.2-2.2,3.5-5.1,3.5-8.3c0-2-0.5-3.9-1.4-5.6l8.9-8.7l10.3,0.1
		l-0.4,40.6C353.9,241.1,347.9,247,340.5,247L340.5,247z M330.7,130.3c0,1.4-0.6,2.6-1.5,3.6c-2,2-5.3,1.9-7.2-0.1
		c-1-1-1.5-2.3-1.5-3.6c0-1.4,0.6-2.6,1.5-3.6c2-2,5.3-1.9,7.2,0.1C330.2,127.6,330.8,128.9,330.7,130.3z M327.8,168.8
		c0,2.8-2.3,5.1-5.2,5.1c-2.8,0-5.1-2.3-5.1-5.2c0-2.8,2.3-5.1,5.2-5.1C325.5,163.6,327.8,165.9,327.8,168.8z M330,207.3
		c0,1.4-0.6,2.6-1.5,3.6c-2,2-5.3,1.9-7.2-0.1c-1-1-1.5-2.3-1.5-3.6c0-1.4,0.6-2.6,1.5-3.6c2-2,5.3-1.9,7.2,0.1c0,0,0,0,0,0l0,0
		C329.5,204.7,330,206,330,207.3L330,207.3z M403.8,208.1l-7.7,7.6l-35.3-0.3l0.1-9.8l29.8,0.3c1.8,0,3.3-1.4,3.3-3.3l0.2-18.3
		c0-1.8-1.4-3.3-3.3-3.3c-1.8,0-3.3,1.4-3.3,3.3l-0.1,15l-26.5-0.3l0.6-59.6l26.5,0.3l-0.1,14.9c0,1.8,1.4,3.3,3.3,3.3
		c1.8,0,3.3-1.4,3.3-3.3l0.2-18.2c0-1.8-1.4-3.3-3.3-3.3l-29.8-0.3l0.1-9.8l35.3,0.3l7.6,7.7L403.8,208.1z"/>
	<path class="st0" d="M391.1,166.1c-1.8,0-3.3,1.4-3.3,3.3l0,0c0,1.8,1.4,3.3,3.3,3.3c1.8,0,3.3-1.5,3.3-3.3
		C394.4,167.6,392.9,166.1,391.1,166.1L391.1,166.1z"/>
</g>
</svg>
